<mxfile host="Electron" modified="2023-12-28T08:54:12.477Z" agent="Mozilla/5.0 (Windows NT 10.0; Win64; x64) AppleWebKit/537.36 (KHTML, like Gecko) draw.io/21.2.8 Chrome/112.0.5615.165 Electron/24.2.0 Safari/537.36" etag="sUIxqFzv5z5B7ZS52Bk_" version="21.2.8" type="device">
  <diagram name="Page-1" id="RmhquWzILGt7IjcxqTcJ">
    <mxGraphModel dx="1343" dy="666" grid="1" gridSize="10" guides="1" tooltips="1" connect="1" arrows="1" fold="1" page="1" pageScale="1" pageWidth="827" pageHeight="1169" math="0" shadow="0">
      <root>
        <mxCell id="0" />
        <mxCell id="1" parent="0" />
        <mxCell id="5dBXhRlYUkqT-WLfC_WU-1" value="&lt;b&gt;&lt;font color=&quot;#ffffff&quot; style=&quot;font-size: 16px;&quot; face=&quot;Verdana&quot;&gt;6&lt;/font&gt;&lt;/b&gt;" style="ellipse;whiteSpace=wrap;html=1;aspect=fixed;fillColor=#000000;" vertex="1" parent="1">
          <mxGeometry x="20" y="230" width="40" height="40" as="geometry" />
        </mxCell>
        <mxCell id="5dBXhRlYUkqT-WLfC_WU-2" value="&lt;b&gt;&lt;font color=&quot;#ffffff&quot; style=&quot;font-size: 16px;&quot; face=&quot;Verdana&quot;&gt;5&lt;/font&gt;&lt;/b&gt;" style="ellipse;whiteSpace=wrap;html=1;aspect=fixed;fillColor=#1A1A1A;fontColor=#ffffff;strokeColor=#000000;" vertex="1" parent="1">
          <mxGeometry x="-50" y="297" width="40" height="40" as="geometry" />
        </mxCell>
        <mxCell id="5dBXhRlYUkqT-WLfC_WU-4" value="" style="endArrow=classic;html=1;rounded=0;exitX=0;exitY=1;exitDx=0;exitDy=0;entryX=1;entryY=0;entryDx=0;entryDy=0;" edge="1" parent="1" source="5dBXhRlYUkqT-WLfC_WU-1" target="5dBXhRlYUkqT-WLfC_WU-2">
          <mxGeometry width="50" height="50" relative="1" as="geometry">
            <mxPoint x="85.85786437626894" y="264.14213562373106" as="sourcePoint" />
            <mxPoint x="34.142135623731065" y="305.85786437626894" as="targetPoint" />
          </mxGeometry>
        </mxCell>
        <mxCell id="5dBXhRlYUkqT-WLfC_WU-7" value="" style="endArrow=classic;html=1;rounded=0;dashed=1;strokeWidth=2;" edge="1" parent="1">
          <mxGeometry width="50" height="50" relative="1" as="geometry">
            <mxPoint x="182" y="279" as="sourcePoint" />
            <mxPoint x="322" y="279.5" as="targetPoint" />
          </mxGeometry>
        </mxCell>
        <mxCell id="5dBXhRlYUkqT-WLfC_WU-12" value="" style="endArrow=classic;html=1;rounded=0;exitX=0.85;exitY=0.75;exitDx=0;exitDy=0;entryX=0;entryY=0;entryDx=0;entryDy=0;exitPerimeter=0;" edge="1" parent="1" source="5dBXhRlYUkqT-WLfC_WU-1" target="5dBXhRlYUkqT-WLfC_WU-13">
          <mxGeometry width="50" height="50" relative="1" as="geometry">
            <mxPoint x="114.14213562373106" y="264.14213562373106" as="sourcePoint" />
            <mxPoint x="135.85786437626894" y="325.85786437626894" as="targetPoint" />
          </mxGeometry>
        </mxCell>
        <mxCell id="5dBXhRlYUkqT-WLfC_WU-13" value="&lt;b&gt;&lt;font color=&quot;#ffffff&quot; style=&quot;font-size: 16px;&quot; face=&quot;Verdana&quot;&gt;8&lt;/font&gt;&lt;/b&gt;" style="ellipse;whiteSpace=wrap;html=1;aspect=fixed;fillColor=#1A1A1A;fontColor=#ffffff;strokeColor=#000000;" vertex="1" parent="1">
          <mxGeometry x="90" y="297" width="40" height="40" as="geometry" />
        </mxCell>
        <mxCell id="5dBXhRlYUkqT-WLfC_WU-15" value="&lt;b&gt;&lt;font color=&quot;#ffffff&quot; style=&quot;font-size: 16px;&quot; face=&quot;Verdana&quot;&gt;7&lt;/font&gt;&lt;/b&gt;" style="ellipse;whiteSpace=wrap;html=1;aspect=fixed;fillColor=#e51400;fontColor=#ffffff;strokeColor=#B20000;" vertex="1" parent="1">
          <mxGeometry x="40" y="360" width="40" height="40" as="geometry" />
        </mxCell>
        <mxCell id="5dBXhRlYUkqT-WLfC_WU-16" value="" style="endArrow=classic;html=1;rounded=0;exitX=0;exitY=1;exitDx=0;exitDy=0;entryX=1;entryY=0;entryDx=0;entryDy=0;" edge="1" parent="1" source="5dBXhRlYUkqT-WLfC_WU-13" target="5dBXhRlYUkqT-WLfC_WU-15">
          <mxGeometry width="50" height="50" relative="1" as="geometry">
            <mxPoint x="306" y="320" as="sourcePoint" />
            <mxPoint x="356" y="270" as="targetPoint" />
          </mxGeometry>
        </mxCell>
        <mxCell id="5dBXhRlYUkqT-WLfC_WU-23" value="&lt;font style=&quot;font-size: 16px;&quot; face=&quot;Verdana&quot;&gt;对应的2-3-4树&lt;/font&gt;" style="text;html=1;align=center;verticalAlign=middle;resizable=0;points=[];autosize=1;strokeColor=none;fillColor=none;" vertex="1" parent="1">
          <mxGeometry x="182" y="241.5" width="130" height="30" as="geometry" />
        </mxCell>
        <mxCell id="5dBXhRlYUkqT-WLfC_WU-33" value="&lt;b&gt;&lt;font style=&quot;font-size: 16px;&quot; face=&quot;Verdana&quot;&gt;7&lt;/font&gt;&lt;/b&gt;" style="rounded=0;whiteSpace=wrap;html=1;fillColor=#b0e3e6;strokeColor=#0c0d0d;" vertex="1" parent="1">
          <mxGeometry x="530" y="309" width="40" height="50" as="geometry" />
        </mxCell>
        <mxCell id="5dBXhRlYUkqT-WLfC_WU-34" value="&lt;b&gt;&lt;font style=&quot;font-size: 16px;&quot; face=&quot;Verdana&quot;&gt;8&lt;/font&gt;&lt;/b&gt;" style="rounded=0;whiteSpace=wrap;html=1;fillColor=#b0e3e6;strokeColor=#000000;" vertex="1" parent="1">
          <mxGeometry x="570" y="309" width="40" height="50" as="geometry" />
        </mxCell>
        <mxCell id="5dBXhRlYUkqT-WLfC_WU-35" value="&lt;b&gt;&lt;font style=&quot;font-size: 16px;&quot; face=&quot;Verdana&quot;&gt;6&lt;/font&gt;&lt;/b&gt;" style="rounded=0;whiteSpace=wrap;html=1;fillColor=#b0e3e6;strokeColor=#050505;" vertex="1" parent="1">
          <mxGeometry x="441" y="219" width="40" height="50" as="geometry" />
        </mxCell>
        <mxCell id="5dBXhRlYUkqT-WLfC_WU-36" value="&lt;b&gt;&lt;font style=&quot;font-size: 16px;&quot; face=&quot;Verdana&quot;&gt;9&lt;/font&gt;&lt;/b&gt;" style="rounded=0;whiteSpace=wrap;html=1;fillColor=#b0e3e6;strokeColor=#0f0f0f;" vertex="1" parent="1">
          <mxGeometry x="481" y="219" width="40" height="50" as="geometry" />
        </mxCell>
        <mxCell id="5dBXhRlYUkqT-WLfC_WU-37" value="&lt;b&gt;&lt;font style=&quot;font-size: 16px;&quot; face=&quot;Verdana&quot;&gt;5&lt;/font&gt;&lt;/b&gt;" style="rounded=0;whiteSpace=wrap;html=1;fillColor=#b0e3e6;strokeColor=#000000;" vertex="1" parent="1">
          <mxGeometry x="370" y="309" width="40" height="50" as="geometry" />
        </mxCell>
        <mxCell id="5dBXhRlYUkqT-WLfC_WU-38" value="" style="endArrow=classic;html=1;rounded=0;exitX=0;exitY=0.5;exitDx=0;exitDy=0;entryX=0.5;entryY=0;entryDx=0;entryDy=0;" edge="1" parent="1" source="5dBXhRlYUkqT-WLfC_WU-35" target="5dBXhRlYUkqT-WLfC_WU-37">
          <mxGeometry width="50" height="50" relative="1" as="geometry">
            <mxPoint x="410" y="119" as="sourcePoint" />
            <mxPoint x="460" y="69" as="targetPoint" />
          </mxGeometry>
        </mxCell>
        <mxCell id="5dBXhRlYUkqT-WLfC_WU-39" value="" style="endArrow=classic;html=1;rounded=0;exitX=1;exitY=0.5;exitDx=0;exitDy=0;entryX=1;entryY=0;entryDx=0;entryDy=0;" edge="1" parent="1" source="5dBXhRlYUkqT-WLfC_WU-36" target="5dBXhRlYUkqT-WLfC_WU-33">
          <mxGeometry width="50" height="50" relative="1" as="geometry">
            <mxPoint x="410" y="119" as="sourcePoint" />
            <mxPoint x="460" y="69" as="targetPoint" />
          </mxGeometry>
        </mxCell>
        <mxCell id="5dBXhRlYUkqT-WLfC_WU-40" value="&lt;b&gt;&lt;font color=&quot;#ffffff&quot; style=&quot;font-size: 16px;&quot; face=&quot;Verdana&quot;&gt;9&lt;/font&gt;&lt;/b&gt;" style="ellipse;whiteSpace=wrap;html=1;aspect=fixed;fillColor=#1A1A1A;fontColor=#ffffff;strokeColor=#000000;" vertex="1" parent="1">
          <mxGeometry x="100" y="150" width="40" height="40" as="geometry" />
        </mxCell>
        <mxCell id="5dBXhRlYUkqT-WLfC_WU-41" value="" style="endArrow=classic;html=1;rounded=0;exitX=0;exitY=1;exitDx=0;exitDy=0;entryX=1;entryY=0;entryDx=0;entryDy=0;" edge="1" parent="1" source="5dBXhRlYUkqT-WLfC_WU-40" target="5dBXhRlYUkqT-WLfC_WU-1">
          <mxGeometry width="50" height="50" relative="1" as="geometry">
            <mxPoint x="50" y="510" as="sourcePoint" />
            <mxPoint x="100" y="460" as="targetPoint" />
          </mxGeometry>
        </mxCell>
      </root>
    </mxGraphModel>
  </diagram>
</mxfile>
